<svg width="30" height="30" viewBox="0 0 30 30" fill="none" xmlns="http://www.w3.org/2000/svg">
<mask id="mask0_29_78" style="mask-type:alpha" maskUnits="userSpaceOnUse" x="0" y="0" width="30" height="30">
<rect width="30" height="30" fill="#D9D9D9"/>
</mask>
<g mask="url(#mask0_29_78)">
<path d="M15 26.25C13.625 26.25 12.4479 25.7604 11.4688 24.7812C10.4896 23.8021 10 22.625 10 21.25C10 19.875 10.4896 18.6979 11.4688 17.7188C12.4479 16.7396 13.625 16.25 15 16.25C16.375 16.25 17.5521 16.7396 18.5312 17.7188C19.5104 18.6979 20 19.875 20 21.25C20 22.625 19.5104 23.8021 18.5312 24.7812C17.5521 25.7604 16.375 26.25 15 26.25ZM15 23.75C15.6875 23.75 16.2763 23.5054 16.7663 23.0163C17.2554 22.5263 17.5 21.9375 17.5 21.25C17.5 20.5625 17.2554 19.9742 16.7663 19.485C16.2763 18.995 15.6875 18.75 15 18.75C14.3125 18.75 13.7242 18.995 13.235 19.485C12.745 19.9742 12.5 20.5625 12.5 21.25C12.5 21.9375 12.745 22.5263 13.235 23.0163C13.7242 23.5054 14.3125 23.75 15 23.75ZM3.8125 10.75L1.96875 9.03125C3.65625 7.38542 5.61458 6.09375 7.84375 5.15625C10.0729 4.21875 12.4583 3.75 15 3.75C17.5417 3.75 19.9271 4.21875 22.1562 5.15625C24.3854 6.09375 26.3437 7.38542 28.0312 9.03125L26.1875 10.75C24.7083 9.35417 23.0208 8.25542 21.125 7.45375C19.2292 6.65125 17.1875 6.25 15 6.25C12.8125 6.25 10.7708 6.65125 8.875 7.45375C6.97917 8.25542 5.29167 9.35417 3.8125 10.75ZM21.625 15.0312C20.75 14.2396 19.75 13.6196 18.625 13.1712C17.5 12.7237 16.2917 12.5 15 12.5C13.7083 12.5 12.5054 12.7237 11.3913 13.1712C10.2762 13.6196 9.27083 14.2396 8.375 15.0312L6.53125 13.3125C7.65625 12.2708 8.9425 11.4583 10.39 10.875C11.8383 10.2917 13.375 10 15 10C16.625 10 18.1562 10.2917 19.5938 10.875C21.0312 11.4583 22.3125 12.2708 23.4375 13.3125L21.625 15.0312Z" fill="#1C1B1F"/>
</g>
</svg>
