<svg width="30" height="30" viewBox="0 0 30 30" fill="none" xmlns="http://www.w3.org/2000/svg">
<mask id="mask0_29_114" style="mask-type:alpha" maskUnits="userSpaceOnUse" x="0" y="0" width="30" height="30">
<rect width="30" height="30" fill="#D9D9D9"/>
</mask>
<g mask="url(#mask0_29_114)">
<path d="M21.25 27.5V17.5H17.5V8.75C17.5 7.02083 18.1096 5.54708 19.3288 4.32875C20.5471 3.10958 22.0208 2.5 23.75 2.5V27.5H21.25ZM8.75 27.5V16.0625C7.6875 15.7708 6.79708 15.1875 6.07875 14.3125C5.35958 13.4375 5 12.4167 5 11.25V2.5H7.5V11.25H8.75V2.5H11.25V11.25H12.5V2.5H15V11.25C15 12.4167 14.6404 13.4375 13.9213 14.3125C13.2029 15.1875 12.3125 15.7708 11.25 16.0625V27.5H8.75Z" fill="#1C1B1F"/>
</g>
</svg>
